<svg xmlns="http://www.w3.org/2000/svg" width="24" height="24" viewBox="0 0 24 24" fill="none" stroke="currentColor"
  stroke-width="2" stroke-linecap="round" stroke-linejoin="round">
  <path
    d="M180 3c.3 0 .5.1.6.1 0 0 1.8.9 1.8 6.4 0 3.8-1.5 5.2-2.2 5.9-.3.4-.5.6-.3 1.3.3.9-.3 1.2-.8 1.2s-.5-.1-.7.1c-.2.2-.5.8-1.2.8-.3 0-.5-.1-.7-.1-.3 0-.5-.1-.8.1-.3 0-.5.4-1 .4-.2 0-.5-.3-.8-.7-.4-.5-.8-.7-1.2-1.2-1-.9-2.2-3.3-2-5.3.2-1 .5-2.2 1-3.2.5-.9 1-1.2 1.2-2 .5-1.5-1-2.8-.1-3.5.9-.6 2.3.5 4.1 0 1.1-.3 2.7-1 3.7-.3.5.4.5 1 1.4 1" />
  <path d="M150 20c1.5 0 2.3-.8 2.6-1.5.3-.7.4-1.3.4-1.3 1.1-1.1 2-3.2 2-5.2s-1-3.5-2-4" />

  <path
    d="M100 1a1 1 0 0 0-1-1c-.5 0-.9.3-1 .8a10 10 0 0 1-.6 2.9 10 10 0 0 1-2.9 2.9c-.5.3-.8.7-.8 1.1 0 .8.5 1.3 1 1.3a1 1 0 0 0 1-1" />
  //olho
  <path d="M8 14v.5" />
  <path d="M16 14v.5" />
  //boca
  <path d="M11.25 16.25h1.5L12 17l-.75-.75z" />
  <path d="M8.2 18a 2 1.5 1 1 0 4 0.1" />
  <path d="M12.1 18a 2 1.5 1 1 0 4 0.1" />
  //orelhas
  <path d="M7 11c 1 -2.25 5 -2 5 -2" />
  <path d="M17 11c -1 -2.25 -5 -2 -5 -2" />
  <path d="M5 18c 0 -0.6 -5 0.5 -2-2 s0 -1 0 -5.6s1-4 2-3 1 2 3 2s " />
  <path transform="scale(-1, 1)" d="M-18.9 18c 0 -0.6 -5 0.5 -2-2 s0 -1 0 -5.6s1-4 2-3 1 2 3 2s " />B
</svg>