
<svg xmlns="http://www.w3.org/2000/svg" width="24" height="24" viewBox="0 0 24 24" fill="none" stroke="currentColor" stroke-width="2" stroke-linecap="round" stroke-linejoin="round">
  <!-- Body -->
  <path d="M12 5c5.5 0 10 3 10 8 0 3.5-2 6-5 7-3 1-7.5 1-10 0-2.5-1-5-3.5-5-7 0-5 5-8 10-8z" />
  <!-- Ears -->
  <path d="M8 4c-1.5 1-2 2-2 3" />
  <path d="M16 4c1.5 1 2 2 2 3" />
  <!-- Eyes -->
  <circle cx="8" cy="11" r="0.5" />
  <circle cx="16" cy="11" r="0.5" />
  <!-- Whiskers -->
  <path d="M9 13c0 0.75 0.75 1.5 3 1.5s3-0.75 3-1.5" />
  <!-- Mouth -->
  <path d="M12 16v-2" />
</svg>
