
<svg xmlns="http://www.w3.org/2000/svg" width="24" height="24" viewBox="0 0 24 24" fill="none" stroke="currentColor" stroke-width="2" stroke-linecap="round" stroke-linejoin="round">
  <path d="M18 3c.3 0 .5.1.6.1 0 0 1.8.9 1.8 6.4 0 3.8-1.5 5.2-2.2 5.9-.3.4-.5.6-.3 1.3.3.9-.3 1.2-.8 1.2s-.5-.1-.7.1c-.2.2-.5.8-1.2.8-.3 0-.5-.1-.7-.1-.3 0-.5-.1-.8.1-.3 0-.5.4-1 .4-.2 0-.5-.3-.8-.7-.4-.5-.8-.7-1.2-1.2-1-.9-2.2-3.3-2-5.3.2-1 .5-2.2 1-3.2.5-.9 1-1.2 1.2-2 .5-1.5-1-2.8-.1-3.5.9-.6 2.3.5 4.1 0 1.1-.3 2.7-1 3.7-.3.5.4.5 1 1.4 1"/>
  <path d="M12 22c1.5 0 2.3-.8 2.6-1.5.3-.7.4-1.3.4-1.3 1.1-1.1 2-3.2 2-5.2s-1-3.5-2-4"/>
  <path d="M9 9a1 1 0 0 0-1-1c-.5 0-.9.3-1 .8a10 10 0 0 1-.6 2.9 10 10 0 0 1-2.9 2.9c-.5.3-.8.7-.8 1.1 0 .8.5 1.3 1 1.3a1 1 0 0 0 1-1"/>
  <path d="M4 14c-.5.3-.8.7-.8 1.1 0 .8.5 1.3 1 1.3a1 1 0 0 0 1-1"/>
  <path d="M6 18a2 2 0 0 0 2 2"/>
  <path d="M10 18a2 2 0 0 0 1.9-1.5"/>
</svg>
